<svg width="385" height="540" viewBox="0 0 385 540" fill="none" xmlns="http://www.w3.org/2000/svg" id="timeline-svg">
<g filter="url(#filter0_d_143_2)">
<path d="M4.33594 112V111.039H7.00781V101.758L4.33594 102.883V101.922L7.00781 100.797H8.01562V111.039H10.6875V112H4.33594ZM12.6172 112V111.039H15.2891V101.758L12.6172 102.883V101.922L15.2891 100.797H16.2969V111.039H18.9688V112H12.6172ZM20.7344 105.203V104H21.9375V105.203H20.7344ZM20.7344 112V110.797H21.9375V112H20.7344ZM30.1562 109.406C30.1562 109.786 30.0833 110.143 29.9375 110.477C29.7969 110.81 29.6016 111.102 29.3516 111.352C29.1016 111.602 28.8099 111.799 28.4766 111.945C28.1432 112.086 27.7865 112.156 27.4062 112.156H26.9297C26.5495 112.156 26.1901 112.086 25.8516 111.945C25.5182 111.799 25.2266 111.602 24.9766 111.352C24.7266 111.102 24.5286 110.81 24.3828 110.477C24.2422 110.143 24.1719 109.786 24.1719 109.406V109.117L25.1797 108.961V109.406C25.1797 109.656 25.2266 109.891 25.3203 110.109C25.4141 110.323 25.5417 110.513 25.7031 110.68C25.8698 110.841 26.0599 110.969 26.2734 111.062C26.4922 111.156 26.7266 111.203 26.9766 111.203H27.3594C27.6094 111.203 27.8411 111.156 28.0547 111.062C28.2734 110.969 28.4635 110.841 28.625 110.68C28.7865 110.513 28.9141 110.323 29.0078 110.109C29.1016 109.891 29.1484 109.656 29.1484 109.406V108.477C29.1484 108.227 29.1016 107.995 29.0078 107.781C28.9141 107.562 28.7865 107.372 28.625 107.211C28.4635 107.049 28.2734 106.922 28.0547 106.828C27.8411 106.734 27.6094 106.688 27.3594 106.688H26.6094V105.727H27.3594C27.6094 105.727 27.8411 105.68 28.0547 105.586C28.2734 105.492 28.4635 105.365 28.625 105.203C28.7865 105.042 28.9141 104.854 29.0078 104.641C29.1016 104.422 29.1484 104.188 29.1484 103.938V103.391C29.1484 103.141 29.1016 102.909 29.0078 102.695C28.9141 102.477 28.7865 102.286 28.625 102.125C28.4635 101.964 28.2734 101.836 28.0547 101.742C27.8411 101.648 27.6094 101.602 27.3594 101.602H26.9766C26.7266 101.602 26.4922 101.648 26.2734 101.742C26.0599 101.836 25.8698 101.964 25.7031 102.125C25.5417 102.286 25.4141 102.477 25.3203 102.695C25.2266 102.909 25.1797 103.141 25.1797 103.391V103.844L24.1719 103.68V103.391C24.1719 103.01 24.2422 102.654 24.3828 102.32C24.5286 101.987 24.7266 101.695 24.9766 101.445C25.2266 101.195 25.5182 101 25.8516 100.859C26.1901 100.714 26.5495 100.641 26.9297 100.641H27.4062C27.7865 100.641 28.1432 100.714 28.4766 100.859C28.8099 101 29.1016 101.195 29.3516 101.445C29.6016 101.695 29.7969 101.987 29.9375 102.32C30.0833 102.654 30.1562 103.01 30.1562 103.391V103.773C30.1562 104.039 30.1198 104.294 30.0469 104.539C29.9792 104.779 29.8802 105.003 29.75 105.211C29.625 105.419 29.474 105.609 29.2969 105.781C29.1198 105.948 28.9219 106.091 28.7031 106.211C28.9219 106.326 29.1198 106.469 29.2969 106.641C29.474 106.807 29.625 106.995 29.75 107.203C29.8802 107.411 29.9792 107.638 30.0469 107.883C30.1198 108.122 30.1562 108.375 30.1562 108.641V109.406ZM38.2344 109.406C38.2344 109.786 38.1615 110.143 38.0156 110.477C37.875 110.81 37.6797 111.102 37.4297 111.352C37.1797 111.602 36.888 111.799 36.5547 111.945C36.2214 112.086 35.8646 112.156 35.4844 112.156H35.0078C34.6276 112.156 34.2682 112.086 33.9297 111.945C33.5964 111.799 33.3047 111.602 33.0547 111.352C32.8047 111.102 32.6068 110.81 32.4609 110.477C32.3203 110.143 32.25 109.786 32.25 109.406V103.391C32.25 103.01 32.3203 102.654 32.4609 102.32C32.6068 101.987 32.8047 101.695 33.0547 101.445C33.3047 101.195 33.5964 101 33.9297 100.859C34.2682 100.714 34.6276 100.641 35.0078 100.641H35.4844C35.8646 100.641 36.2214 100.714 36.5547 100.859C36.888 101 37.1797 101.195 37.4297 101.445C37.6797 101.695 37.875 101.987 38.0156 102.32C38.1615 102.654 38.2344 103.01 38.2344 103.391V109.406ZM37.2266 103.391C37.2266 103.141 37.1797 102.909 37.0859 102.695C36.9922 102.477 36.8646 102.286 36.7031 102.125C36.5417 101.964 36.3516 101.836 36.1328 101.742C35.9193 101.648 35.6875 101.602 35.4375 101.602H35.0547C34.8047 101.602 34.5703 101.648 34.3516 101.742C34.138 101.836 33.9479 101.964 33.7812 102.125C33.6198 102.286 33.4922 102.477 33.3984 102.695C33.3047 102.909 33.2578 103.141 33.2578 103.391V109.406C33.2578 109.656 33.3047 109.891 33.3984 110.109C33.4922 110.323 33.6198 110.513 33.7812 110.68C33.9479 110.841 34.138 110.969 34.3516 111.062C34.5703 111.156 34.8047 111.203 35.0547 111.203H35.4375C35.6875 111.203 35.9193 111.156 36.1328 111.062C36.3516 110.969 36.5417 110.841 36.7031 110.68C36.8646 110.513 36.9922 110.323 37.0859 110.109C37.1797 109.891 37.2266 109.656 37.2266 109.406V103.391ZM48.5391 109.391H44.9922L44.2578 112H43.2109L46.4922 100.797H47.0234L50.3203 112H49.2812L48.5391 109.391ZM45.2656 108.43H48.2734L46.7969 103.266L46.7656 102.852L46.7344 103.266L45.2656 108.43ZM58.6562 112V104.32L58.5859 104.797L55.9844 112H55.4531L52.8281 104.797L52.7656 104.32V112H51.7578V100.797H52.2812L55.6797 109.984L55.7109 110.398L55.7422 109.984L59.1328 100.797H59.6641V112H58.6562Z" fill="#1E1E1E"/>
</g>
<g filter="url(#filter1_d_143_2)">
<path d="M336.836 218.406C336.836 218.786 336.763 219.143 336.617 219.477C336.477 219.81 336.281 220.102 336.031 220.352C335.781 220.602 335.49 220.799 335.156 220.945C334.823 221.086 334.466 221.156 334.086 221.156H333.609C333.229 221.156 332.87 221.086 332.531 220.945C332.198 220.799 331.906 220.602 331.656 220.352C331.406 220.102 331.208 219.81 331.062 219.477C330.922 219.143 330.852 218.786 330.852 218.406V218.234H331.859V218.406C331.859 218.656 331.906 218.891 332 219.109C332.094 219.323 332.221 219.513 332.383 219.68C332.549 219.841 332.74 219.969 332.953 220.062C333.172 220.156 333.406 220.203 333.656 220.203H334.039C334.289 220.203 334.521 220.156 334.734 220.062C334.953 219.969 335.143 219.841 335.305 219.68C335.466 219.513 335.594 219.323 335.688 219.109C335.781 218.891 335.828 218.656 335.828 218.406V216.234C335.828 215.984 335.781 215.753 335.688 215.539C335.594 215.32 335.466 215.13 335.305 214.969C335.143 214.802 334.953 214.672 334.734 214.578C334.521 214.484 334.289 214.438 334.039 214.438H333.656C333.406 214.438 333.172 214.484 332.953 214.578C332.74 214.672 332.549 214.802 332.383 214.969C332.221 215.13 332.094 215.32 332 215.539C331.906 215.753 331.859 215.984 331.859 216.234H330.852L331.492 209.797H336.281V210.758H332.438L332.07 214.203C332.31 213.974 332.589 213.797 332.906 213.672C333.224 213.542 333.565 213.477 333.93 213.477H334.086C334.466 213.477 334.823 213.549 335.156 213.695C335.49 213.836 335.781 214.031 336.031 214.281C336.281 214.531 336.477 214.826 336.617 215.164C336.763 215.497 336.836 215.854 336.836 216.234V218.406ZM339.086 214.203V213H340.289V214.203H339.086ZM339.086 221V219.797H340.289V221H339.086ZM348.508 218.406C348.508 218.786 348.435 219.143 348.289 219.477C348.148 219.81 347.953 220.102 347.703 220.352C347.453 220.602 347.161 220.799 346.828 220.945C346.495 221.086 346.138 221.156 345.758 221.156H345.281C344.901 221.156 344.542 221.086 344.203 220.945C343.87 220.799 343.578 220.602 343.328 220.352C343.078 220.102 342.88 219.81 342.734 219.477C342.594 219.143 342.523 218.786 342.523 218.406V212.391C342.523 212.01 342.594 211.654 342.734 211.32C342.88 210.987 343.078 210.695 343.328 210.445C343.578 210.195 343.87 210 344.203 209.859C344.542 209.714 344.901 209.641 345.281 209.641H345.758C346.138 209.641 346.495 209.714 346.828 209.859C347.161 210 347.453 210.195 347.703 210.445C347.953 210.695 348.148 210.987 348.289 211.32C348.435 211.654 348.508 212.01 348.508 212.391V218.406ZM347.5 212.391C347.5 212.141 347.453 211.909 347.359 211.695C347.266 211.477 347.138 211.286 346.977 211.125C346.815 210.964 346.625 210.836 346.406 210.742C346.193 210.648 345.961 210.602 345.711 210.602H345.328C345.078 210.602 344.844 210.648 344.625 210.742C344.411 210.836 344.221 210.964 344.055 211.125C343.893 211.286 343.766 211.477 343.672 211.695C343.578 211.909 343.531 212.141 343.531 212.391V218.406C343.531 218.656 343.578 218.891 343.672 219.109C343.766 219.323 343.893 219.513 344.055 219.68C344.221 219.841 344.411 219.969 344.625 220.062C344.844 220.156 345.078 220.203 345.328 220.203H345.711C345.961 220.203 346.193 220.156 346.406 220.062C346.625 219.969 346.815 219.841 346.977 219.68C347.138 219.513 347.266 219.323 347.359 219.109C347.453 218.891 347.5 218.656 347.5 218.406V212.391ZM356.742 218.406C356.742 218.786 356.669 219.143 356.523 219.477C356.383 219.81 356.188 220.102 355.938 220.352C355.688 220.602 355.396 220.799 355.062 220.945C354.729 221.086 354.372 221.156 353.992 221.156H353.516C353.135 221.156 352.776 221.086 352.438 220.945C352.104 220.799 351.812 220.602 351.562 220.352C351.312 220.102 351.115 219.81 350.969 219.477C350.828 219.143 350.758 218.786 350.758 218.406V212.391C350.758 212.01 350.828 211.654 350.969 211.32C351.115 210.987 351.312 210.695 351.562 210.445C351.812 210.195 352.104 210 352.438 209.859C352.776 209.714 353.135 209.641 353.516 209.641H353.992C354.372 209.641 354.729 209.714 355.062 209.859C355.396 210 355.688 210.195 355.938 210.445C356.188 210.695 356.383 210.987 356.523 211.32C356.669 211.654 356.742 212.01 356.742 212.391V218.406ZM355.734 212.391C355.734 212.141 355.688 211.909 355.594 211.695C355.5 211.477 355.372 211.286 355.211 211.125C355.049 210.964 354.859 210.836 354.641 210.742C354.427 210.648 354.195 210.602 353.945 210.602H353.562C353.312 210.602 353.078 210.648 352.859 210.742C352.646 210.836 352.456 210.964 352.289 211.125C352.128 211.286 352 211.477 351.906 211.695C351.812 211.909 351.766 212.141 351.766 212.391V218.406C351.766 218.656 351.812 218.891 351.906 219.109C352 219.323 352.128 219.513 352.289 219.68C352.456 219.841 352.646 219.969 352.859 220.062C353.078 220.156 353.312 220.203 353.562 220.203H353.945C354.195 220.203 354.427 220.156 354.641 220.062C354.859 219.969 355.049 219.841 355.211 219.68C355.372 219.513 355.5 219.323 355.594 219.109C355.688 218.891 355.734 218.656 355.734 218.406V212.391ZM369.148 213.945C369.148 214.326 369.076 214.682 368.93 215.016C368.789 215.349 368.594 215.641 368.344 215.891C368.094 216.141 367.799 216.339 367.461 216.484C367.128 216.625 366.771 216.695 366.391 216.695H363.852V221H362.844V209.797H366.391C366.771 209.797 367.128 209.87 367.461 210.016C367.799 210.156 368.094 210.352 368.344 210.602C368.594 210.852 368.789 211.146 368.93 211.484C369.076 211.818 369.148 212.174 369.148 212.555V213.945ZM368.141 212.555C368.141 212.305 368.094 212.073 368 211.859C367.906 211.641 367.776 211.451 367.609 211.289C367.448 211.122 367.258 210.992 367.039 210.898C366.826 210.805 366.594 210.758 366.344 210.758H363.852V215.734H366.344C366.594 215.734 366.826 215.688 367.039 215.594C367.258 215.5 367.448 215.372 367.609 215.211C367.776 215.049 367.906 214.862 368 214.648C368.094 214.43 368.141 214.195 368.141 213.945V212.555ZM377.977 221V213.32L377.906 213.797L375.305 221H374.773L372.148 213.797L372.086 213.32V221H371.078V209.797H371.602L375 218.984L375.031 219.398L375.062 218.984L378.453 209.797H378.984V221H377.977Z" fill="#1E1E1E"/>
</g>
<g filter="url(#filter2_d_143_2)">
<path d="M14.0781 332.406C14.0781 332.786 14.0052 333.143 13.8594 333.477C13.7188 333.81 13.5234 334.102 13.2734 334.352C13.0234 334.602 12.7318 334.799 12.3984 334.945C12.0651 335.086 11.7083 335.156 11.3281 335.156H10.8438C10.4635 335.156 10.1068 335.086 9.77344 334.945C9.4401 334.799 9.14844 334.602 8.89844 334.352C8.64844 334.102 8.45052 333.81 8.30469 333.477C8.16406 333.143 8.09375 332.786 8.09375 332.406V326.391C8.09375 326.01 8.16406 325.654 8.30469 325.32C8.45052 324.987 8.64844 324.695 8.89844 324.445C9.14844 324.195 9.4401 324 9.77344 323.859C10.1068 323.714 10.4635 323.641 10.8438 323.641H11.3281C11.7083 323.641 12.0651 323.714 12.3984 323.859C12.7318 324 13.0234 324.195 13.2734 324.445C13.5234 324.695 13.7188 324.987 13.8594 325.32C14.0052 325.654 14.0781 326.01 14.0781 326.391V326.68L13.0703 326.844V326.391C13.0703 326.141 13.0234 325.909 12.9297 325.695C12.8359 325.477 12.7057 325.286 12.5391 325.125C12.3776 324.964 12.1875 324.836 11.9688 324.742C11.7552 324.648 11.5234 324.602 11.2734 324.602H10.8906C10.6406 324.602 10.4062 324.648 10.1875 324.742C9.97396 324.836 9.78646 324.964 9.625 325.125C9.46354 325.286 9.33594 325.477 9.24219 325.695C9.14844 325.909 9.10156 326.141 9.10156 326.391V329.18C9.35677 328.898 9.66146 328.674 10.0156 328.508C10.375 328.336 10.7578 328.25 11.1641 328.25H11.3281C11.7083 328.25 12.0651 328.323 12.3984 328.469C12.7318 328.609 13.0234 328.805 13.2734 329.055C13.5234 329.305 13.7188 329.596 13.8594 329.93C14.0052 330.263 14.0781 330.62 14.0781 331V332.406ZM13.0703 331C13.0703 330.75 13.0234 330.518 12.9297 330.305C12.8359 330.086 12.7057 329.896 12.5391 329.734C12.3776 329.573 12.1875 329.445 11.9688 329.352C11.7552 329.258 11.5234 329.211 11.2734 329.211H10.8906C10.6406 329.211 10.4062 329.258 10.1875 329.352C9.97396 329.445 9.78646 329.573 9.625 329.734C9.46354 329.896 9.33594 330.086 9.24219 330.305C9.14844 330.518 9.10156 330.75 9.10156 331V332.406C9.10156 332.656 9.14844 332.891 9.24219 333.109C9.33594 333.323 9.46354 333.513 9.625 333.68C9.78646 333.841 9.97396 333.969 10.1875 334.062C10.4062 334.156 10.6406 334.203 10.8906 334.203H11.2734C11.5234 334.203 11.7552 334.156 11.9688 334.062C12.1875 333.969 12.3776 333.841 12.5391 333.68C12.7057 333.513 12.8359 333.323 12.9297 333.109C13.0234 332.891 13.0703 332.656 13.0703 332.406V331ZM16.1641 328.203V327H17.3672V328.203H16.1641ZM16.1641 335V333.797H17.3672V335H16.1641ZM25.5859 332.406C25.5859 332.786 25.513 333.143 25.3672 333.477C25.2266 333.81 25.0312 334.102 24.7812 334.352C24.5312 334.602 24.2396 334.799 23.9062 334.945C23.5729 335.086 23.2161 335.156 22.8359 335.156H22.3594C21.9792 335.156 21.6198 335.086 21.2812 334.945C20.9479 334.799 20.6562 334.602 20.4062 334.352C20.1562 334.102 19.9583 333.81 19.8125 333.477C19.6719 333.143 19.6016 332.786 19.6016 332.406V332.117L20.6094 331.961V332.406C20.6094 332.656 20.6562 332.891 20.75 333.109C20.8438 333.323 20.9714 333.513 21.1328 333.68C21.2995 333.841 21.4896 333.969 21.7031 334.062C21.9219 334.156 22.1562 334.203 22.4062 334.203H22.7891C23.0391 334.203 23.2708 334.156 23.4844 334.062C23.7031 333.969 23.8932 333.841 24.0547 333.68C24.2161 333.513 24.3438 333.323 24.4375 333.109C24.5312 332.891 24.5781 332.656 24.5781 332.406V331.477C24.5781 331.227 24.5312 330.995 24.4375 330.781C24.3438 330.562 24.2161 330.372 24.0547 330.211C23.8932 330.049 23.7031 329.922 23.4844 329.828C23.2708 329.734 23.0391 329.688 22.7891 329.688H22.0391V328.727H22.7891C23.0391 328.727 23.2708 328.68 23.4844 328.586C23.7031 328.492 23.8932 328.365 24.0547 328.203C24.2161 328.042 24.3438 327.854 24.4375 327.641C24.5312 327.422 24.5781 327.188 24.5781 326.938V326.391C24.5781 326.141 24.5312 325.909 24.4375 325.695C24.3438 325.477 24.2161 325.286 24.0547 325.125C23.8932 324.964 23.7031 324.836 23.4844 324.742C23.2708 324.648 23.0391 324.602 22.7891 324.602H22.4062C22.1562 324.602 21.9219 324.648 21.7031 324.742C21.4896 324.836 21.2995 324.964 21.1328 325.125C20.9714 325.286 20.8438 325.477 20.75 325.695C20.6562 325.909 20.6094 326.141 20.6094 326.391V326.844L19.6016 326.68V326.391C19.6016 326.01 19.6719 325.654 19.8125 325.32C19.9583 324.987 20.1562 324.695 20.4062 324.445C20.6562 324.195 20.9479 324 21.2812 323.859C21.6198 323.714 21.9792 323.641 22.3594 323.641H22.8359C23.2161 323.641 23.5729 323.714 23.9062 323.859C24.2396 324 24.5312 324.195 24.7812 324.445C25.0312 324.695 25.2266 324.987 25.3672 325.32C25.513 325.654 25.5859 326.01 25.5859 326.391V326.773C25.5859 327.039 25.5495 327.294 25.4766 327.539C25.4089 327.779 25.3099 328.003 25.1797 328.211C25.0547 328.419 24.9036 328.609 24.7266 328.781C24.5495 328.948 24.3516 329.091 24.1328 329.211C24.3516 329.326 24.5495 329.469 24.7266 329.641C24.9036 329.807 25.0547 329.995 25.1797 330.203C25.3099 330.411 25.4089 330.638 25.4766 330.883C25.5495 331.122 25.5859 331.375 25.5859 331.641V332.406ZM33.6641 332.406C33.6641 332.786 33.5911 333.143 33.4453 333.477C33.3047 333.81 33.1094 334.102 32.8594 334.352C32.6094 334.602 32.3177 334.799 31.9844 334.945C31.651 335.086 31.2943 335.156 30.9141 335.156H30.4375C30.0573 335.156 29.6979 335.086 29.3594 334.945C29.026 334.799 28.7344 334.602 28.4844 334.352C28.2344 334.102 28.0365 333.81 27.8906 333.477C27.75 333.143 27.6797 332.786 27.6797 332.406V326.391C27.6797 326.01 27.75 325.654 27.8906 325.32C28.0365 324.987 28.2344 324.695 28.4844 324.445C28.7344 324.195 29.026 324 29.3594 323.859C29.6979 323.714 30.0573 323.641 30.4375 323.641H30.9141C31.2943 323.641 31.651 323.714 31.9844 323.859C32.3177 324 32.6094 324.195 32.8594 324.445C33.1094 324.695 33.3047 324.987 33.4453 325.32C33.5911 325.654 33.6641 326.01 33.6641 326.391V332.406ZM32.6562 326.391C32.6562 326.141 32.6094 325.909 32.5156 325.695C32.4219 325.477 32.2943 325.286 32.1328 325.125C31.9714 324.964 31.7812 324.836 31.5625 324.742C31.349 324.648 31.1172 324.602 30.8672 324.602H30.4844C30.2344 324.602 30 324.648 29.7812 324.742C29.5677 324.836 29.3776 324.964 29.2109 325.125C29.0495 325.286 28.9219 325.477 28.8281 325.695C28.7344 325.909 28.6875 326.141 28.6875 326.391V332.406C28.6875 332.656 28.7344 332.891 28.8281 333.109C28.9219 333.323 29.0495 333.513 29.2109 333.68C29.3776 333.841 29.5677 333.969 29.7812 334.062C30 334.156 30.2344 334.203 30.4844 334.203H30.8672C31.1172 334.203 31.349 334.156 31.5625 334.062C31.7812 333.969 31.9714 333.841 32.1328 333.68C32.2943 333.513 32.4219 333.323 32.5156 333.109C32.6094 332.891 32.6562 332.656 32.6562 332.406V326.391ZM46.0703 327.945C46.0703 328.326 45.9974 328.682 45.8516 329.016C45.7109 329.349 45.5156 329.641 45.2656 329.891C45.0156 330.141 44.7214 330.339 44.3828 330.484C44.0495 330.625 43.6927 330.695 43.3125 330.695H40.7734V335H39.7656V323.797H43.3125C43.6927 323.797 44.0495 323.87 44.3828 324.016C44.7214 324.156 45.0156 324.352 45.2656 324.602C45.5156 324.852 45.7109 325.146 45.8516 325.484C45.9974 325.818 46.0703 326.174 46.0703 326.555V327.945ZM45.0625 326.555C45.0625 326.305 45.0156 326.073 44.9219 325.859C44.8281 325.641 44.6979 325.451 44.5312 325.289C44.3698 325.122 44.1797 324.992 43.9609 324.898C43.7474 324.805 43.5156 324.758 43.2656 324.758H40.7734V329.734H43.2656C43.5156 329.734 43.7474 329.688 43.9609 329.594C44.1797 329.5 44.3698 329.372 44.5312 329.211C44.6979 329.049 44.8281 328.862 44.9219 328.648C45.0156 328.43 45.0625 328.195 45.0625 327.945V326.555ZM54.8984 335V327.32L54.8281 327.797L52.2266 335H51.6953L49.0703 327.797L49.0078 327.32V335H48V323.797H48.5234L51.9219 332.984L51.9531 333.398L51.9844 332.984L55.375 323.797H55.9062V335H54.8984Z" fill="#1E1E1E"/>
</g>
<g filter="url(#filter3_d_143_2)">
<path d="M332.852 457H331.797L335.992 446.758H332.102V448.25H331.094V445.797H337.234V446.281L332.852 457ZM339.164 450.203V449H340.367V450.203H339.164ZM339.164 457V455.797H340.367V457H339.164ZM348.586 454.406C348.586 454.786 348.513 455.143 348.367 455.477C348.227 455.81 348.031 456.102 347.781 456.352C347.531 456.602 347.24 456.799 346.906 456.945C346.573 457.086 346.216 457.156 345.836 457.156H345.359C344.979 457.156 344.62 457.086 344.281 456.945C343.948 456.799 343.656 456.602 343.406 456.352C343.156 456.102 342.958 455.81 342.812 455.477C342.672 455.143 342.602 454.786 342.602 454.406V454.117L343.609 453.961V454.406C343.609 454.656 343.656 454.891 343.75 455.109C343.844 455.323 343.971 455.513 344.133 455.68C344.299 455.841 344.49 455.969 344.703 456.062C344.922 456.156 345.156 456.203 345.406 456.203H345.789C346.039 456.203 346.271 456.156 346.484 456.062C346.703 455.969 346.893 455.841 347.055 455.68C347.216 455.513 347.344 455.323 347.438 455.109C347.531 454.891 347.578 454.656 347.578 454.406V453.477C347.578 453.227 347.531 452.995 347.438 452.781C347.344 452.562 347.216 452.372 347.055 452.211C346.893 452.049 346.703 451.922 346.484 451.828C346.271 451.734 346.039 451.688 345.789 451.688H345.039V450.727H345.789C346.039 450.727 346.271 450.68 346.484 450.586C346.703 450.492 346.893 450.365 347.055 450.203C347.216 450.042 347.344 449.854 347.438 449.641C347.531 449.422 347.578 449.188 347.578 448.938V448.391C347.578 448.141 347.531 447.909 347.438 447.695C347.344 447.477 347.216 447.286 347.055 447.125C346.893 446.964 346.703 446.836 346.484 446.742C346.271 446.648 346.039 446.602 345.789 446.602H345.406C345.156 446.602 344.922 446.648 344.703 446.742C344.49 446.836 344.299 446.964 344.133 447.125C343.971 447.286 343.844 447.477 343.75 447.695C343.656 447.909 343.609 448.141 343.609 448.391V448.844L342.602 448.68V448.391C342.602 448.01 342.672 447.654 342.812 447.32C342.958 446.987 343.156 446.695 343.406 446.445C343.656 446.195 343.948 446 344.281 445.859C344.62 445.714 344.979 445.641 345.359 445.641H345.836C346.216 445.641 346.573 445.714 346.906 445.859C347.24 446 347.531 446.195 347.781 446.445C348.031 446.695 348.227 446.987 348.367 447.32C348.513 447.654 348.586 448.01 348.586 448.391V448.773C348.586 449.039 348.549 449.294 348.477 449.539C348.409 449.779 348.31 450.003 348.18 450.211C348.055 450.419 347.904 450.609 347.727 450.781C347.549 450.948 347.352 451.091 347.133 451.211C347.352 451.326 347.549 451.469 347.727 451.641C347.904 451.807 348.055 451.995 348.18 452.203C348.31 452.411 348.409 452.638 348.477 452.883C348.549 453.122 348.586 453.375 348.586 453.641V454.406ZM356.664 454.406C356.664 454.786 356.591 455.143 356.445 455.477C356.305 455.81 356.109 456.102 355.859 456.352C355.609 456.602 355.318 456.799 354.984 456.945C354.651 457.086 354.294 457.156 353.914 457.156H353.438C353.057 457.156 352.698 457.086 352.359 456.945C352.026 456.799 351.734 456.602 351.484 456.352C351.234 456.102 351.036 455.81 350.891 455.477C350.75 455.143 350.68 454.786 350.68 454.406V448.391C350.68 448.01 350.75 447.654 350.891 447.32C351.036 446.987 351.234 446.695 351.484 446.445C351.734 446.195 352.026 446 352.359 445.859C352.698 445.714 353.057 445.641 353.438 445.641H353.914C354.294 445.641 354.651 445.714 354.984 445.859C355.318 446 355.609 446.195 355.859 446.445C356.109 446.695 356.305 446.987 356.445 447.32C356.591 447.654 356.664 448.01 356.664 448.391V454.406ZM355.656 448.391C355.656 448.141 355.609 447.909 355.516 447.695C355.422 447.477 355.294 447.286 355.133 447.125C354.971 446.964 354.781 446.836 354.562 446.742C354.349 446.648 354.117 446.602 353.867 446.602H353.484C353.234 446.602 353 446.648 352.781 446.742C352.568 446.836 352.378 446.964 352.211 447.125C352.049 447.286 351.922 447.477 351.828 447.695C351.734 447.909 351.688 448.141 351.688 448.391V454.406C351.688 454.656 351.734 454.891 351.828 455.109C351.922 455.323 352.049 455.513 352.211 455.68C352.378 455.841 352.568 455.969 352.781 456.062C353 456.156 353.234 456.203 353.484 456.203H353.867C354.117 456.203 354.349 456.156 354.562 456.062C354.781 455.969 354.971 455.841 355.133 455.68C355.294 455.513 355.422 455.323 355.516 455.109C355.609 454.891 355.656 454.656 355.656 454.406V448.391ZM369.07 449.945C369.07 450.326 368.997 450.682 368.852 451.016C368.711 451.349 368.516 451.641 368.266 451.891C368.016 452.141 367.721 452.339 367.383 452.484C367.049 452.625 366.693 452.695 366.312 452.695H363.773V457H362.766V445.797H366.312C366.693 445.797 367.049 445.87 367.383 446.016C367.721 446.156 368.016 446.352 368.266 446.602C368.516 446.852 368.711 447.146 368.852 447.484C368.997 447.818 369.07 448.174 369.07 448.555V449.945ZM368.062 448.555C368.062 448.305 368.016 448.073 367.922 447.859C367.828 447.641 367.698 447.451 367.531 447.289C367.37 447.122 367.18 446.992 366.961 446.898C366.747 446.805 366.516 446.758 366.266 446.758H363.773V451.734H366.266C366.516 451.734 366.747 451.688 366.961 451.594C367.18 451.5 367.37 451.372 367.531 451.211C367.698 451.049 367.828 450.862 367.922 450.648C368.016 450.43 368.062 450.195 368.062 449.945V448.555ZM377.898 457V449.32L377.828 449.797L375.227 457H374.695L372.07 449.797L372.008 449.32V457H371V445.797H371.523L374.922 454.984L374.953 455.398L374.984 454.984L378.375 445.797H378.906V457H377.898Z" fill="#1E1E1E"/>
</g>
<g filter="url(#filter4_d_143_2)">
<path d="M103.098 94H102.312L99.043 81.3555L98.9961 80.6992L98.9258 81.3555L95.6797 94H94.8945L90.4297 77.1953H91.9414L95.2344 89.9688L95.2812 90.5898L95.3281 89.9688L98.5625 77.1953H99.4062L102.641 89.9688L102.688 90.5898L102.746 89.9688L106.027 77.1953H107.539L103.098 94ZM117.125 90.707C117.125 91.1914 117.031 91.6484 116.844 92.0781C116.664 92.5078 116.414 92.8828 116.094 93.2031C115.773 93.5234 115.398 93.7773 114.969 93.9648C114.539 94.1445 114.082 94.2344 113.598 94.2344H112.637C112.152 94.2344 111.695 94.1445 111.266 93.9648C110.836 93.7773 110.461 93.5234 110.141 93.2031C109.82 92.8828 109.566 92.5078 109.379 92.0781C109.199 91.6484 109.109 91.1914 109.109 90.707V85.293C109.109 84.8086 109.199 84.3516 109.379 83.9219C109.566 83.4922 109.82 83.1172 110.141 82.7969C110.461 82.4766 110.836 82.2266 111.266 82.0469C111.695 81.8594 112.152 81.7656 112.637 81.7656H113.598C114.082 81.7656 114.539 81.8594 114.969 82.0469C115.398 82.2266 115.773 82.4766 116.094 82.7969C116.414 83.1172 116.664 83.4922 116.844 83.9219C117.031 84.3516 117.125 84.8086 117.125 85.293V88.1172H110.551V90.7891C110.551 91.0781 110.605 91.3516 110.715 91.6094C110.824 91.8594 110.973 92.0781 111.16 92.2656C111.348 92.4531 111.566 92.6016 111.816 92.7109C112.074 92.8203 112.348 92.875 112.637 92.875H113.598C113.887 92.875 114.156 92.8203 114.406 92.7109C114.664 92.6016 114.887 92.4531 115.074 92.2656C115.262 92.0781 115.41 91.8594 115.52 91.6094C115.629 91.3516 115.684 91.0781 115.684 90.7891V89.9922L117.125 90.2266V90.707ZM115.684 85.2109C115.684 84.9219 115.629 84.6523 115.52 84.4023C115.41 84.1445 115.262 83.9219 115.074 83.7344C114.887 83.5469 114.664 83.3984 114.406 83.2891C114.156 83.1797 113.887 83.125 113.598 83.125H112.637C112.348 83.125 112.074 83.1797 111.816 83.2891C111.566 83.3984 111.348 83.5469 111.16 83.7344C110.973 83.9219 110.824 84.1445 110.715 84.4023C110.605 84.6523 110.551 84.9219 110.551 85.2109V86.9922H115.684V85.2109ZM135.477 89.875C135.477 90.4453 135.367 90.9805 135.148 91.4805C134.938 91.9805 134.645 92.418 134.27 92.793C133.895 93.168 133.453 93.4648 132.945 93.6836C132.445 93.8945 131.91 94 131.34 94H126.02V77.1953H131.34C131.91 77.1953 132.445 77.3047 132.945 77.5234C133.453 77.7344 133.895 78.0273 134.27 78.4023C134.645 78.7773 134.938 79.2188 135.148 79.7266C135.367 80.2266 135.477 80.7617 135.477 81.332V89.875ZM133.965 81.332C133.965 80.957 133.895 80.6094 133.754 80.2891C133.613 79.9609 133.418 79.6758 133.168 79.4336C132.926 79.1836 132.641 78.9883 132.312 78.8477C131.992 78.707 131.645 78.6367 131.27 78.6367H127.531V92.5586H131.27C131.645 92.5586 131.992 92.4883 132.312 92.3477C132.641 92.207 132.926 92.0156 133.168 91.7734C133.418 91.5312 133.613 91.25 133.754 90.9297C133.895 90.6016 133.965 90.25 133.965 89.875V81.332ZM146.609 90.707C146.609 91.1914 146.516 91.6484 146.328 92.0781C146.148 92.5078 145.898 92.8828 145.578 93.2031C145.258 93.5234 144.883 93.7773 144.453 93.9648C144.023 94.1445 143.566 94.2344 143.082 94.2344H142.121C141.637 94.2344 141.18 94.1445 140.75 93.9648C140.32 93.7773 139.945 93.5234 139.625 93.2031C139.305 92.8828 139.051 92.5078 138.863 92.0781C138.684 91.6484 138.594 91.1914 138.594 90.707V85.293C138.594 84.8086 138.684 84.3516 138.863 83.9219C139.051 83.4922 139.305 83.1172 139.625 82.7969C139.945 82.4766 140.32 82.2266 140.75 82.0469C141.18 81.8594 141.637 81.7656 142.121 81.7656H143.082C143.566 81.7656 144.023 81.8594 144.453 82.0469C144.883 82.2266 145.258 82.4766 145.578 82.7969C145.898 83.1172 146.148 83.4922 146.328 83.9219C146.516 84.3516 146.609 84.8086 146.609 85.293V90.707ZM145.168 85.2109C145.168 84.9219 145.113 84.6523 145.004 84.4023C144.895 84.1445 144.746 83.9219 144.559 83.7344C144.371 83.5469 144.148 83.3984 143.891 83.2891C143.641 83.1797 143.371 83.125 143.082 83.125H142.121C141.832 83.125 141.559 83.1797 141.301 83.2891C141.051 83.3984 140.832 83.5469 140.645 83.7344C140.457 83.9219 140.309 84.1445 140.199 84.4023C140.09 84.6523 140.035 84.9219 140.035 85.2109V90.7891C140.035 91.0781 140.09 91.3516 140.199 91.6094C140.309 91.8594 140.457 92.0781 140.645 92.2656C140.832 92.4531 141.051 92.6016 141.301 92.7109C141.559 92.8203 141.832 92.875 142.121 92.875H143.082C143.371 92.875 143.641 92.8203 143.891 92.7109C144.148 92.6016 144.371 92.4531 144.559 92.2656C144.746 92.0781 144.895 91.8594 145.004 91.6094C145.113 91.3516 145.168 91.0781 145.168 90.7891V85.2109Z" fill="#1E1E1E"/>
</g>
<g filter="url(#filter5_d_143_2)">
<path d="M245.129 206H244.475L241.75 195.463L241.711 194.916L241.652 195.463L238.947 206H238.293L234.572 191.996H235.832L238.576 202.641L238.615 203.158L238.654 202.641L241.35 191.996H242.053L244.748 202.641L244.787 203.158L244.836 202.641L247.57 191.996H248.83L245.129 206ZM256.818 203.256C256.818 203.66 256.74 204.04 256.584 204.398C256.434 204.757 256.226 205.069 255.959 205.336C255.692 205.603 255.38 205.814 255.021 205.971C254.663 206.12 254.283 206.195 253.879 206.195H253.078C252.674 206.195 252.294 206.12 251.936 205.971C251.577 205.814 251.265 205.603 250.998 205.336C250.731 205.069 250.52 204.757 250.363 204.398C250.214 204.04 250.139 203.66 250.139 203.256V198.744C250.139 198.34 250.214 197.96 250.363 197.602C250.52 197.243 250.731 196.931 250.998 196.664C251.265 196.397 251.577 196.189 251.936 196.039C252.294 195.883 252.674 195.805 253.078 195.805H253.879C254.283 195.805 254.663 195.883 255.021 196.039C255.38 196.189 255.692 196.397 255.959 196.664C256.226 196.931 256.434 197.243 256.584 197.602C256.74 197.96 256.818 198.34 256.818 198.744V201.098H251.34V203.324C251.34 203.565 251.385 203.793 251.477 204.008C251.568 204.216 251.691 204.398 251.848 204.555C252.004 204.711 252.186 204.835 252.395 204.926C252.609 205.017 252.837 205.062 253.078 205.062H253.879C254.12 205.062 254.344 205.017 254.553 204.926C254.768 204.835 254.953 204.711 255.109 204.555C255.266 204.398 255.389 204.216 255.48 204.008C255.572 203.793 255.617 203.565 255.617 203.324V202.66L256.818 202.855V203.256ZM255.617 198.676C255.617 198.435 255.572 198.21 255.48 198.002C255.389 197.787 255.266 197.602 255.109 197.445C254.953 197.289 254.768 197.165 254.553 197.074C254.344 196.983 254.12 196.938 253.879 196.938H253.078C252.837 196.938 252.609 196.983 252.395 197.074C252.186 197.165 252.004 197.289 251.848 197.445C251.691 197.602 251.568 197.787 251.477 198.002C251.385 198.21 251.34 198.435 251.34 198.676V200.16H255.617V198.676ZM272.111 202.562C272.111 203.038 272.02 203.484 271.838 203.9C271.662 204.317 271.418 204.682 271.105 204.994C270.793 205.307 270.425 205.554 270.002 205.736C269.585 205.912 269.139 206 268.664 206H264.23V191.996H268.664C269.139 191.996 269.585 192.087 270.002 192.27C270.425 192.445 270.793 192.689 271.105 193.002C271.418 193.314 271.662 193.682 271.838 194.105C272.02 194.522 272.111 194.968 272.111 195.443V202.562ZM270.852 195.443C270.852 195.131 270.793 194.841 270.676 194.574C270.559 194.301 270.396 194.063 270.188 193.861C269.986 193.653 269.748 193.49 269.475 193.373C269.208 193.256 268.918 193.197 268.605 193.197H265.49V204.799H268.605C268.918 204.799 269.208 204.74 269.475 204.623C269.748 204.506 269.986 204.346 270.188 204.145C270.396 203.943 270.559 203.708 270.676 203.441C270.793 203.168 270.852 202.875 270.852 202.562V195.443ZM277.648 197.143C277.408 197.143 277.18 197.188 276.965 197.279C276.757 197.37 276.574 197.494 276.418 197.65C276.262 197.807 276.138 197.992 276.047 198.207C275.956 198.415 275.91 198.64 275.91 198.881V206H274.709V196H275.109L275.764 197.016C276.037 196.645 276.379 196.352 276.789 196.137C277.206 195.915 277.658 195.805 278.146 195.805H278.85V197.143H277.648ZM280.754 193.598V191.996H282.15V193.598H280.754ZM280.852 206V196H282.053V206H280.852ZM290.344 206V198.676C290.344 198.435 290.298 198.21 290.207 198.002C290.116 197.787 289.992 197.602 289.836 197.445C289.68 197.289 289.494 197.165 289.279 197.074C289.071 196.983 288.846 196.938 288.605 196.938H287.805C287.564 196.938 287.336 196.983 287.121 197.074C286.913 197.165 286.73 197.289 286.574 197.445C286.418 197.602 286.294 197.787 286.203 198.002C286.112 198.21 286.066 198.435 286.066 198.676V206H284.865V196H285.266L285.92 197.016C286.193 196.645 286.535 196.352 286.945 196.137C287.362 195.915 287.814 195.805 288.303 195.805H288.605C289.009 195.805 289.39 195.883 289.748 196.039C290.106 196.189 290.419 196.397 290.686 196.664C290.952 196.931 291.161 197.243 291.311 197.602C291.467 197.96 291.545 198.34 291.545 198.744V206H290.344ZM299.865 206L295.783 201L299.865 196H301.428L297.248 201L301.428 206H299.865ZM294.348 206V191.996H295.549V206H294.348Z" fill="#1E1E1E"/>
</g>
<g filter="url(#filter6_d_143_2)">
<path d="M106.564 318H105.91L103.186 307.463L103.146 306.916L103.088 307.463L100.383 318H99.7285L96.0078 303.996H97.2676L100.012 314.641L100.051 315.158L100.09 314.641L102.785 303.996H103.488L106.184 314.641L106.223 315.158L106.271 314.641L109.006 303.996H110.266L106.564 318ZM118.254 315.256C118.254 315.66 118.176 316.04 118.02 316.398C117.87 316.757 117.661 317.069 117.395 317.336C117.128 317.603 116.815 317.814 116.457 317.971C116.099 318.12 115.718 318.195 115.314 318.195H114.514C114.11 318.195 113.729 318.12 113.371 317.971C113.013 317.814 112.701 317.603 112.434 317.336C112.167 317.069 111.955 316.757 111.799 316.398C111.649 316.04 111.574 315.66 111.574 315.256V310.744C111.574 310.34 111.649 309.96 111.799 309.602C111.955 309.243 112.167 308.931 112.434 308.664C112.701 308.397 113.013 308.189 113.371 308.039C113.729 307.883 114.11 307.805 114.514 307.805H115.314C115.718 307.805 116.099 307.883 116.457 308.039C116.815 308.189 117.128 308.397 117.395 308.664C117.661 308.931 117.87 309.243 118.02 309.602C118.176 309.96 118.254 310.34 118.254 310.744V313.098H112.775V315.324C112.775 315.565 112.821 315.793 112.912 316.008C113.003 316.216 113.127 316.398 113.283 316.555C113.439 316.711 113.622 316.835 113.83 316.926C114.045 317.017 114.273 317.062 114.514 317.062H115.314C115.555 317.062 115.78 317.017 115.988 316.926C116.203 316.835 116.389 316.711 116.545 316.555C116.701 316.398 116.825 316.216 116.916 316.008C117.007 315.793 117.053 315.565 117.053 315.324V314.66L118.254 314.855V315.256ZM117.053 310.676C117.053 310.435 117.007 310.21 116.916 310.002C116.825 309.787 116.701 309.602 116.545 309.445C116.389 309.289 116.203 309.165 115.988 309.074C115.78 308.983 115.555 308.938 115.314 308.938H114.514C114.273 308.938 114.045 308.983 113.83 309.074C113.622 309.165 113.439 309.289 113.283 309.445C113.127 309.602 113.003 309.787 112.912 310.002C112.821 310.21 112.775 310.435 112.775 310.676V312.16H117.053V310.676ZM125.666 318V303.996H133.547V305.197H126.926V310.402H132.287V311.604H126.926V316.799H133.547V318H125.666ZM141.838 318L141.174 317.004C140.9 317.362 140.559 317.652 140.148 317.873C139.738 318.088 139.289 318.195 138.801 318.195H138.498C138.094 318.195 137.714 318.12 137.355 317.971C136.997 317.814 136.685 317.603 136.418 317.336C136.151 317.069 135.939 316.757 135.783 316.398C135.633 316.04 135.559 315.66 135.559 315.256V315.158C135.559 314.755 135.633 314.374 135.783 314.016C135.939 313.658 136.151 313.345 136.418 313.078C136.685 312.811 136.997 312.603 137.355 312.453C137.714 312.297 138.094 312.219 138.498 312.219H141.037V310.676C141.037 310.435 140.992 310.21 140.9 310.002C140.809 309.787 140.686 309.602 140.529 309.445C140.373 309.289 140.188 309.165 139.973 309.074C139.764 308.983 139.54 308.938 139.299 308.938H138.596C138.355 308.938 138.127 308.983 137.912 309.074C137.704 309.165 137.521 309.289 137.365 309.445C137.209 309.602 137.085 309.787 136.994 310.002C136.903 310.21 136.857 310.435 136.857 310.676V311.037L135.656 310.842V310.744C135.656 310.34 135.731 309.96 135.881 309.602C136.037 309.243 136.249 308.931 136.516 308.664C136.783 308.397 137.095 308.189 137.453 308.039C137.811 307.883 138.192 307.805 138.596 307.805H139.299C139.702 307.805 140.083 307.883 140.441 308.039C140.799 308.189 141.112 308.397 141.379 308.664C141.646 308.931 141.854 309.243 142.004 309.602C142.16 309.96 142.238 310.34 142.238 310.744V318H141.838ZM141.037 313.156H138.498C138.257 313.156 138.029 313.202 137.814 313.293C137.606 313.384 137.424 313.511 137.268 313.674C137.111 313.83 136.988 314.016 136.896 314.23C136.805 314.439 136.76 314.663 136.76 314.904V315.324C136.76 315.565 136.805 315.793 136.896 316.008C136.988 316.216 137.111 316.398 137.268 316.555C137.424 316.711 137.606 316.835 137.814 316.926C138.029 317.017 138.257 317.062 138.498 317.062H139.299C139.54 317.062 139.764 317.017 139.973 316.926C140.188 316.835 140.373 316.711 140.529 316.555C140.686 316.398 140.809 316.216 140.9 316.008C140.992 315.793 141.037 315.565 141.037 315.324V313.156ZM148.283 318C147.919 318 147.574 317.932 147.248 317.795C146.929 317.658 146.649 317.469 146.408 317.229C146.174 316.988 145.985 316.708 145.842 316.389C145.705 316.07 145.637 315.728 145.637 315.363V309.143H143.84V308H145.637V305.598L146.838 305.402V308H149.377V309.143H146.838V315.422C146.838 315.624 146.874 315.812 146.945 315.988C147.023 316.158 147.128 316.307 147.258 316.438C147.388 316.568 147.541 316.672 147.717 316.75C147.893 316.822 148.081 316.857 148.283 316.857H149.377V318H148.283Z" fill="#1E1E1E"/>
</g>
<g filter="url(#filter7_d_143_2)">
<path d="M244.748 442H244.094L241.369 431.463L241.33 430.916L241.271 431.463L238.566 442H237.912L234.191 427.996H235.451L238.195 438.641L238.234 439.158L238.273 438.641L240.969 427.996H241.672L244.367 438.641L244.406 439.158L244.455 438.641L247.189 427.996H248.449L244.748 442ZM256.438 439.256C256.438 439.66 256.359 440.04 256.203 440.398C256.053 440.757 255.845 441.069 255.578 441.336C255.311 441.603 254.999 441.814 254.641 441.971C254.283 442.12 253.902 442.195 253.498 442.195H252.697C252.294 442.195 251.913 442.12 251.555 441.971C251.197 441.814 250.884 441.603 250.617 441.336C250.35 441.069 250.139 440.757 249.982 440.398C249.833 440.04 249.758 439.66 249.758 439.256V434.744C249.758 434.34 249.833 433.96 249.982 433.602C250.139 433.243 250.35 432.931 250.617 432.664C250.884 432.397 251.197 432.189 251.555 432.039C251.913 431.883 252.294 431.805 252.697 431.805H253.498C253.902 431.805 254.283 431.883 254.641 432.039C254.999 432.189 255.311 432.397 255.578 432.664C255.845 432.931 256.053 433.243 256.203 433.602C256.359 433.96 256.438 434.34 256.438 434.744V437.098H250.959V439.324C250.959 439.565 251.005 439.793 251.096 440.008C251.187 440.216 251.311 440.398 251.467 440.555C251.623 440.711 251.805 440.835 252.014 440.926C252.229 441.017 252.456 441.062 252.697 441.062H253.498C253.739 441.062 253.964 441.017 254.172 440.926C254.387 440.835 254.572 440.711 254.729 440.555C254.885 440.398 255.008 440.216 255.1 440.008C255.191 439.793 255.236 439.565 255.236 439.324V438.66L256.438 438.855V439.256ZM255.236 434.676C255.236 434.435 255.191 434.21 255.1 434.002C255.008 433.787 254.885 433.602 254.729 433.445C254.572 433.289 254.387 433.165 254.172 433.074C253.964 432.983 253.739 432.938 253.498 432.938H252.697C252.456 432.938 252.229 432.983 252.014 433.074C251.805 433.165 251.623 433.289 251.467 433.445C251.311 433.602 251.187 433.787 251.096 434.002C251.005 434.21 250.959 434.435 250.959 434.676V436.16H255.236V434.676ZM271.73 433.182C271.73 433.657 271.639 434.103 271.457 434.52C271.281 434.936 271.037 435.301 270.725 435.613C270.412 435.926 270.044 436.173 269.621 436.355C269.204 436.531 268.758 436.619 268.283 436.619H265.109V442H263.85V427.996H268.283C268.758 427.996 269.204 428.087 269.621 428.27C270.044 428.445 270.412 428.689 270.725 429.002C271.037 429.314 271.281 429.682 271.457 430.105C271.639 430.522 271.73 430.968 271.73 431.443V433.182ZM270.471 431.443C270.471 431.131 270.412 430.841 270.295 430.574C270.178 430.301 270.015 430.063 269.807 429.861C269.605 429.653 269.367 429.49 269.094 429.373C268.827 429.256 268.537 429.197 268.225 429.197H265.109V435.418H268.225C268.537 435.418 268.827 435.359 269.094 435.242C269.367 435.125 269.605 434.965 269.807 434.764C270.015 434.562 270.178 434.327 270.295 434.061C270.412 433.787 270.471 433.494 270.471 433.182V431.443ZM280.021 442L279.357 441.004C279.084 441.362 278.742 441.652 278.332 441.873C277.922 442.088 277.473 442.195 276.984 442.195H276.682C276.278 442.195 275.897 442.12 275.539 441.971C275.181 441.814 274.868 441.603 274.602 441.336C274.335 441.069 274.123 440.757 273.967 440.398C273.817 440.04 273.742 439.66 273.742 439.256V439.158C273.742 438.755 273.817 438.374 273.967 438.016C274.123 437.658 274.335 437.345 274.602 437.078C274.868 436.811 275.181 436.603 275.539 436.453C275.897 436.297 276.278 436.219 276.682 436.219H279.221V434.676C279.221 434.435 279.175 434.21 279.084 434.002C278.993 433.787 278.869 433.602 278.713 433.445C278.557 433.289 278.371 433.165 278.156 433.074C277.948 432.983 277.723 432.938 277.482 432.938H276.779C276.538 432.938 276.311 432.983 276.096 433.074C275.887 433.165 275.705 433.289 275.549 433.445C275.393 433.602 275.269 433.787 275.178 434.002C275.087 434.21 275.041 434.435 275.041 434.676V435.037L273.84 434.842V434.744C273.84 434.34 273.915 433.96 274.064 433.602C274.221 433.243 274.432 432.931 274.699 432.664C274.966 432.397 275.279 432.189 275.637 432.039C275.995 431.883 276.376 431.805 276.779 431.805H277.482C277.886 431.805 278.267 431.883 278.625 432.039C278.983 432.189 279.296 432.397 279.562 432.664C279.829 432.931 280.038 433.243 280.188 433.602C280.344 433.96 280.422 434.34 280.422 434.744V442H280.021ZM279.221 437.156H276.682C276.441 437.156 276.213 437.202 275.998 437.293C275.79 437.384 275.607 437.511 275.451 437.674C275.295 437.83 275.171 438.016 275.08 438.23C274.989 438.439 274.943 438.663 274.943 438.904V439.324C274.943 439.565 274.989 439.793 275.08 440.008C275.171 440.216 275.295 440.398 275.451 440.555C275.607 440.711 275.79 440.835 275.998 440.926C276.213 441.017 276.441 441.062 276.682 441.062H277.482C277.723 441.062 277.948 441.017 278.156 440.926C278.371 440.835 278.557 440.711 278.713 440.555C278.869 440.398 278.993 440.216 279.084 440.008C279.175 439.793 279.221 439.565 279.221 439.324V437.156ZM285.764 433.143C285.523 433.143 285.295 433.188 285.08 433.279C284.872 433.37 284.689 433.494 284.533 433.65C284.377 433.807 284.253 433.992 284.162 434.207C284.071 434.415 284.025 434.64 284.025 434.881V442H282.824V432H283.225L283.879 433.016C284.152 432.645 284.494 432.352 284.904 432.137C285.321 431.915 285.773 431.805 286.262 431.805H286.965V433.143H285.764ZM292.209 442C291.844 442 291.499 441.932 291.174 441.795C290.855 441.658 290.575 441.469 290.334 441.229C290.1 440.988 289.911 440.708 289.768 440.389C289.631 440.07 289.562 439.728 289.562 439.363V433.143H287.766V432H289.562V429.598L290.764 429.402V432H293.303V433.143H290.764V439.422C290.764 439.624 290.799 439.812 290.871 439.988C290.949 440.158 291.053 440.307 291.184 440.438C291.314 440.568 291.467 440.672 291.643 440.75C291.818 440.822 292.007 440.857 292.209 440.857H293.303V442H292.209ZM297.141 446.004H295.979L297.756 441.141L294.514 432H295.715L298.322 439.578L298.361 440.096L298.4 439.578L300.998 432H302.199L297.141 446.004Z" fill="#1E1E1E"/>
</g>
<rect x="192" y="16" width="2" height="509" fill="black"/>
<circle cx="193" cy="9" r="9" fill="black"/>
<circle cx="193" cy="531" r="9" fill="black"/>
<circle cx="193" cy="108" r="8" fill="white" stroke="black" stroke-width="2"/>
<line x1="184" y1="108" x2="66" y2="108" stroke="black" stroke-width="2" stroke-linecap="round" stroke-dasharray="3 10"/>
<circle cx="193" cy="215" r="8" fill="white" stroke="black" stroke-width="2"/>
<line x1="320" y1="215" x2="202" y2="215" stroke="black" stroke-width="2" stroke-linecap="round" stroke-dasharray="3 10"/>
<circle cx="193" cy="331" r="8" fill="white" stroke="black" stroke-width="2"/>
<line x1="184" y1="331" x2="66" y2="331" stroke="black" stroke-width="2" stroke-linecap="round" stroke-dasharray="3 10"/>
<circle cx="193" cy="453" r="8" fill="white" stroke="black" stroke-width="2"/>
<line x1="320" y1="453" x2="202" y2="453" stroke="black" stroke-width="2" stroke-linecap="round" stroke-dasharray="3 10"/>
<path d="M321.63 99.8219C315.335 91.3062 303.33 89.4608 294.762 95.6366C301.183 104.752 301.267 116.532 295.816 125.585C295.425 125.355 295.051 125.095 294.677 124.836C294.967 124.323 295.245 123.804 295.496 123.275C297.123 119.721 297.874 115.859 297.757 112.146C297.597 108.425 296.543 104.917 294.896 101.926C294.516 101.148 294.037 100.483 293.584 99.8112C293.168 99.1461 292.627 98.5133 292.146 97.9205C291.982 98.0888 291.807 98.249 291.652 98.4219C292.108 99.0106 292.563 99.5542 292.962 100.223C293.405 100.902 293.875 101.587 294.209 102.322C295.726 105.2 296.668 108.618 296.814 112.181C296.902 115.747 296.157 119.448 294.578 122.842C294.352 123.312 294.104 123.775 293.844 124.232C292.456 123.164 291.185 121.902 290.093 120.426C290.064 120.386 290.04 120.342 290.01 120.302C292.944 114.451 292.887 107.333 289.439 101.438C287.271 105.098 286.391 109.376 286.874 113.569C287.248 116.816 288.434 120.013 290.513 122.825C296.854 131.404 308.994 133.224 317.572 126.883C324.035 122.105 326.657 114.038 324.848 106.68C324.257 104.27 323.194 101.937 321.63 99.8219ZM325.363 97.695C326.058 98.5353 326.429 98.9834 326.429 98.9834C326.429 98.9834 326.748 99.4693 327.348 100.381C327.668 100.824 327.984 101.417 328.342 102.123C328.519 102.476 328.734 102.843 328.916 103.257C329.084 103.677 329.263 104.124 329.451 104.597C330.156 106.492 330.855 108.901 330.935 111.737C331.044 114.55 330.696 117.784 329.445 121.016C328.197 124.234 326.104 127.433 323.19 130.058C322.451 130.684 321.652 131.324 320.863 131.872C319.995 132.408 319.126 133.029 318.212 133.428C316.442 134.384 314.407 135.016 312.357 135.465C310.287 135.899 308.129 135.964 305.976 135.831C303.821 135.647 301.683 135.158 299.617 134.417C297.565 133.628 295.636 132.532 293.841 131.239C292.073 129.899 290.535 128.28 289.178 126.52C288.625 125.643 287.824 124.607 287.399 123.673C286.854 122.747 286.457 121.702 286.037 120.678C285.325 118.584 284.849 116.417 284.695 114.225C284.594 112.034 284.75 109.844 285.211 107.733C285.714 105.637 286.41 103.592 287.432 101.74C289.447 98.0198 292.416 95.0179 295.792 92.9602C299.118 90.9673 302.817 89.887 306.252 89.6412C309.706 89.393 312.9 90.006 315.557 90.9373C318.244 91.8442 320.344 93.2179 321.949 94.4482C322.346 94.766 322.72 95.0688 323.073 95.353C323.416 95.6485 323.703 95.9625 323.989 96.2341C324.558 96.7826 325.032 97.2593 325.363 97.695ZM326.429 98.9834C326.429 98.9834 326.061 98.533 325.374 97.6852C325.049 97.2458 324.577 96.7659 324.012 96.2118C323.729 95.9355 323.442 95.6198 323.101 95.3199C322.751 95.0313 322.379 94.7256 321.984 94.4025C320.384 93.1568 318.291 91.7693 315.619 90.7705C312.965 89.7539 309.759 89.0823 306.229 89.1562C302.7 89.2637 298.899 90.1664 295.265 92.1366C291.738 94.0791 288.411 97.1231 286.105 100.987C284.93 102.915 284.085 105.067 283.446 107.307C282.87 109.569 282.647 111.939 282.696 114.323C282.786 116.713 283.271 119.095 284.041 121.39C284.487 122.516 284.907 123.65 285.533 124.739C286.099 125.916 286.735 126.73 287.428 127.814C288.926 129.73 290.63 131.487 292.579 132.935C294.543 134.347 296.682 135.502 298.94 136.29C301.205 137.035 303.536 137.521 305.866 137.628C308.193 137.674 310.5 137.497 312.686 136.941C314.865 136.363 316.941 135.621 318.826 134.499C319.817 134 320.617 133.367 321.47 132.79C322.336 132.132 323.095 131.462 323.849 130.767C326.765 127.901 328.768 124.512 329.897 121.176C331.003 117.823 331.304 114.562 331.111 111.727C330.939 108.879 330.227 106.472 329.504 104.575C329.312 104.104 329.128 103.659 328.956 103.239C328.769 102.825 328.551 102.459 328.37 102.107C328.006 101.404 327.686 100.813 327.36 100.372C326.752 99.467 326.429 98.9834 326.429 98.9834ZM328.638 94.6418C331.057 97.9152 332.649 101.547 333.468 105.289C335.76 115.768 331.922 127.111 322.752 133.89C312.381 141.557 298.426 140.992 288.739 133.388C288.708 133.411 288.681 133.435 288.65 133.458C276.495 142.443 259.296 139.864 250.311 127.709C244.989 120.51 243.724 111.541 246.103 103.557L252.22 104.391C252.16 104.535 252.094 104.693 252.017 104.875C251.84 105.295 251.621 105.814 251.365 106.423C251.19 107.064 250.99 107.798 250.766 108.619C250.492 109.434 250.43 110.383 250.284 111.402C250.09 112.421 250.135 113.539 250.135 114.733C250.136 115.032 250.137 115.335 250.138 115.644C250.178 115.948 250.217 116.259 250.259 116.573C250.344 117.203 250.434 117.85 250.523 118.516C250.628 119.179 250.872 119.829 251.048 120.511C251.247 121.188 251.403 121.897 251.745 122.563C252.047 123.243 252.353 123.937 252.668 124.644C253.024 125.32 253.463 125.953 253.868 126.627C254.082 126.966 254.298 127.308 254.515 127.653C254.77 127.968 255.027 128.287 255.285 128.608C255.546 128.925 255.795 129.258 256.073 129.57C256.368 129.868 256.663 130.168 256.962 130.468C259.366 132.85 262.436 134.902 265.986 136.027C269.513 137.164 273.437 137.573 277.298 136.947C278.254 136.749 279.231 136.621 280.163 136.303L281.578 135.877L282.95 135.321C283.882 134.992 284.742 134.449 285.636 134C286.385 133.558 287.064 133.101 287.781 132.601C287.5 132.36 287.223 132.111 286.951 131.857C286.338 132.283 285.691 132.723 285.059 133.098C284.218 133.518 283.435 134.03 282.538 134.352L281.229 134.893L279.877 135.308C278.986 135.621 278.05 135.747 277.137 135.943C273.443 136.568 269.675 136.199 266.28 135.128C262.871 134.057 259.884 132.156 257.518 129.9C257.222 129.614 256.93 129.331 256.64 129.049C256.367 128.751 256.12 128.434 255.859 128.132C255.604 127.825 255.348 127.523 255.096 127.221C254.882 126.896 254.671 126.571 254.46 126.25C254.045 125.588 253.587 124.954 253.225 124.3C252.913 123.627 252.607 122.967 252.308 122.322C251.968 121.69 251.801 121 251.595 120.345C251.41 119.683 251.162 119.051 251.036 118.408C250.928 117.761 250.822 117.131 250.718 116.517C250.668 116.21 250.618 115.907 250.57 115.608C250.56 115.306 250.55 115.009 250.541 114.715C250.504 113.544 250.422 112.442 250.583 111.432C250.696 110.422 250.727 109.479 250.972 108.665C251.166 107.841 251.34 107.105 251.488 106.465C251.72 105.847 251.914 105.322 252.072 104.896C252.141 104.707 252.202 104.546 252.258 104.396L253.79 104.604C251.585 110.641 252.344 117.633 256.442 123.176C262.749 131.709 274.653 133.681 283.374 127.821C280.522 123.895 278.836 119.469 278.256 114.959C276.993 105.184 280.916 95.0216 289.389 88.7578C301.833 79.5586 319.439 82.1982 328.638 94.6418ZM259.384 77.7878L251.644 83.5092L260.682 85.764L259.384 77.7878ZM250.506 84.3503L243.408 89.5974L249.967 93.6061L250.506 84.3503ZM270.737 78.9157L260.461 77.5341L261.765 85.5477L270.737 78.9157ZM243.095 90.6942L241.4 100.602L249.503 94.6129L243.095 90.6942ZM267.929 101.656L271.394 79.5724L261.93 86.5686L267.929 101.656ZM241.97 101.324L263.66 104.474L250.382 95.1051L241.97 101.324ZM260.118 86.7656L251.6 84.641L251.088 93.4406L260.118 86.7656ZM266.989 104.46L267.392 103.491L261.025 87.2375L251.306 94.4221L265.833 104.542L266.989 104.46ZM272.49 84.011C277.508 84.0426 282.479 85.4516 286.806 88.1313C285.595 89.227 284.504 90.4147 283.528 91.6699C283.43 91.7954 283.331 91.9195 283.237 92.0464C282.744 92.7 282.285 93.3742 281.855 94.0638C278.611 92.2958 274.936 91.4745 271.275 91.6689" fill="black"/>
<path fill-rule="evenodd" clip-rule="evenodd" d="M58.7401 186.464C56.4858 193.978 40.7048 232.304 54.607 238.689L48.2195 260.482C44.0863 260.857 34.3174 262.361 37.6989 263.112L59.1156 269.124C62.1216 270.251 54.607 264.239 51.2255 261.233L57.6129 239.441C72.6422 241.32 79.4052 200.74 81.6603 192.85L58.7401 186.464ZM77.5264 197.736L78.2781 194.73L60.2429 189.845C59.8674 191.724 58.7402 194.73 57.613 197.736H77.5257H77.5264ZM77.1509 200.365H73.7694C70.7635 212.013 65.8793 230.799 57.2375 237.187C67.7581 235.684 73.7694 213.515 77.1502 200.365H77.1509ZM54.9831 266.869L49.7228 262.36L51.2255 265.742L54.9825 266.869H54.9831Z" fill="black"/>
<path fill-rule="evenodd" clip-rule="evenodd" d="M82.9053 192.85C85.1596 200.364 93.8014 240.942 108.83 238.689L115.969 260.106C112.588 263.112 105.073 269.499 108.455 267.996L129.496 261.233C132.878 260.106 123.109 259.354 118.975 259.354L111.836 237.562C125.362 230.423 108.079 192.851 105.449 185.336L82.9055 192.851L82.9053 192.85ZM107.328 198.11C105.826 194.353 104.698 191.347 103.947 189.092L86.2876 194.728C86.663 195.48 86.663 196.607 87.0392 197.734L107.329 198.11L107.328 198.11ZM108.08 200.364H104.698C108.455 211.636 113.34 226.665 110.334 235.683C117.097 229.671 112.589 213.14 108.08 200.364ZM124.988 261.608L118.225 260.857L121.231 262.735L124.988 261.608Z" fill="black"/>
<path d="M72.6752 173.558C71.548 172.806 71.1725 172.431 70.0453 172.806C68.9181 173.182 68.5427 174.309 68.9181 175.436C69.6698 177.315 72.2996 178.066 74.9301 179.193C76.0572 176.563 77.1844 173.933 76.4327 172.43C76.0572 171.303 74.9301 170.928 73.8029 171.303C73.0512 171.679 72.6757 172.43 72.6757 173.557L72.6752 173.558Z" fill="black"/>
<path d="M89.2464 178.458C90.3736 177.331 91.5007 176.955 92.6279 177.706C94.1305 178.082 94.8822 179.96 94.5068 181.088C93.3796 183.717 89.6226 185.221 85.8649 186.723C83.9861 182.966 82.4834 179.209 83.2351 176.954C83.9868 175.452 85.4894 174.7 87.3682 175.452C88.4954 175.827 88.8709 176.954 89.2471 178.458H89.2464Z" fill="black"/>
<path d="M78.7039 161.503C78.3284 161.128 77.5767 160.752 77.2012 161.128C76.4495 161.128 76.0741 161.88 76.4495 162.631C76.825 163.758 78.3284 164.133 80.2066 164.885C80.9583 163.382 81.3337 161.879 80.9583 160.752C80.9583 160 80.2066 160 79.4556 160C79.0802 160.375 78.7039 160.752 78.7039 161.503L78.7039 161.503Z" fill="black"/>
<path d="M88.8738 166.024C89.6255 165.272 90.001 165.272 90.7526 165.648C91.5043 165.648 92.2553 166.775 91.8798 167.527C91.1281 168.654 89.2499 169.406 87.3711 170.157C86.6194 168.278 85.4923 166.4 85.8685 164.897C86.244 164.521 87.3711 164.145 88.1228 164.521C88.8745 164.521 88.8745 165.273 88.8745 166.024L88.8738 166.024Z" fill="black"/>
<g clip-path="url(#clip0_143_2)">
<path d="M320.157 360.513L320.182 360.503C320.182 360.503 302.33 342.386 300.578 340.634C299.492 340.314 293.141 337.521 293.031 332.271C295.741 329.165 299.682 326.182 305.503 326.123C305.513 326.119 305.543 326.116 305.558 326.116C308.191 326.187 310.848 325.314 312.963 323.466C313.111 323.336 313.458 322.982 313.458 322.982L328 304.655L326.253 302.902L308.464 321.737L306.364 319.631L324.675 301.322L323.135 299.792L304.717 318.213L302.976 316.47L321.396 298.049L319.702 296.358L301.282 314.777L299.217 312.717L318.231 294.879L316.634 293.283L299.112 306.933C299.112 306.933 298.476 307.469 298.256 307.692C295.851 310.095 294.818 313.357 295.163 316.499C294.92 320.484 293.632 323.443 291.96 325.693C259.294 293.736 246.976 297.154 246.976 297.154L246 298.144C246 298.144 267.965 320.169 281.537 333.767C276.775 338.534 253.818 361.492 253.818 361.492L253.82 361.497C253.8 361.517 253.775 361.524 253.751 361.549C252.111 363.191 252.117 365.848 253.754 367.487C255.392 369.126 258.057 369.126 259.691 367.492C259.717 367.467 259.725 367.44 259.74 367.425L259.745 367.43C259.745 367.43 282.731 344.45 287.466 339.718C289.948 342.203 291.605 343.862 291.93 344.187C293.942 346.209 314.197 366.464 314.197 366.464H314.222C314.222 366.489 314.244 366.511 314.267 366.522C315.903 368.171 318.591 368.171 320.225 366.522C321.884 364.887 321.884 362.21 320.225 360.563C320.205 360.538 320.182 360.528 320.157 360.513Z" fill="black"/>
</g>
<g clip-path="url(#clip1_143_2)">
<path d="M84.4857 450.781C89.5351 455.812 93.3378 461.172 95.3998 465.773C97.6109 470.695 97.8382 474.875 95.5645 477.14C94.4982 478.203 93.0006 478.719 91.2051 478.734L51.3515 496.429C41.2528 501.406 36.2819 502.156 34.5805 499.484C32.9732 496.961 34.8784 491.609 38.344 484.008L56.4635 443.336C56.6047 441.875 57.1065 440.656 58.0238 439.742C60.2976 437.476 64.4923 437.703 69.4318 439.906C74.0578 441.961 79.4364 445.742 84.4857 450.781ZM124.833 474.484C126.025 475.672 126.025 477.601 124.833 478.789C123.642 479.976 121.705 479.976 120.513 478.789C119.321 477.601 119.321 475.672 120.513 474.484C121.705 473.297 123.634 473.297 124.833 474.484ZM127.734 460.297C128.581 460.14 129.397 460.695 129.553 461.539C129.71 462.383 129.154 463.195 128.307 463.351C124.159 464.133 120.67 461.601 117.063 458.992C112.32 455.554 107.341 451.945 101.045 458.39C100.449 459.008 99.4612 459.015 98.8418 458.422C98.2224 457.828 98.2146 456.844 98.8105 456.226C106.988 447.851 113.088 452.265 118.89 456.476C121.948 458.687 124.904 460.828 127.734 460.297ZM128.448 413.945C129.31 413.945 130 414.64 130 415.492C130 416.351 129.302 417.039 128.448 417.039C121.282 417.054 119.4 422.804 117.408 428.883C115.095 435.953 112.649 443.406 102.942 445.062C102.041 445.219 101.116 445.367 100.096 445.508C99.1241 445.64 98.1597 445.75 97.1875 445.812C96.325 445.867 95.588 445.219 95.5331 444.359C95.4782 443.5 96.129 442.765 96.9915 442.711C97.901 442.648 98.7948 442.554 99.6808 442.429C100.528 442.312 101.461 442.164 102.417 442C110.266 440.664 112.414 434.125 114.437 427.929C116.797 420.75 119.016 413.969 128.448 413.945ZM73.3913 406.265C73.5482 405.422 74.3636 404.867 75.2104 405.023C76.0571 405.179 76.6138 405.992 76.457 406.836C75.9474 409.515 77.8134 412.375 79.7344 415.312C83.7252 421.429 87.9199 427.844 77.3587 436.172C76.6844 436.703 75.7043 436.586 75.1711 435.914C74.638 435.242 74.7556 434.265 75.4299 433.734C83.7644 427.164 80.3694 421.953 77.1235 416.992C74.8497 413.531 72.6465 410.164 73.3913 406.265ZM108.815 410.875L105.836 416.734L110.234 421.164L104.001 420.32L100.998 425.867L100.01 419.695L93.7925 418.601L99.375 415.719L98.4655 409.273L102.982 413.89L108.815 410.875ZM94.7177 429.89C95.9095 431.078 95.9095 433.008 94.7177 434.195C93.5259 435.383 91.5893 435.383 90.3975 434.195C89.2058 433.008 89.2058 431.078 90.3975 429.89C91.5893 428.703 93.5259 428.703 94.7177 429.89ZM90.2564 409.054C91.4482 410.242 91.4482 412.172 90.2564 413.359C89.0646 414.547 87.128 414.547 85.9363 413.359C84.7445 412.172 84.7445 410.242 85.9363 409.054C87.128 407.867 89.0646 407.867 90.2564 409.054ZM70.5295 424.125C71.7213 425.312 71.7213 427.242 70.5295 428.429C69.3378 429.617 67.4011 429.617 66.2094 428.429C65.0176 427.242 65.0176 425.312 66.2094 424.125C67.4011 422.937 69.3299 422.937 70.5295 424.125ZM123.085 441.492C124.277 442.679 124.277 444.609 123.085 445.797C121.893 446.984 119.957 446.984 118.765 445.797C117.573 444.609 117.573 442.679 118.765 441.492C119.957 440.304 121.893 440.304 123.085 441.492ZM113.488 464.851L109.779 467.265L110.846 471.312L107.506 468.734L103.891 470.953L105.397 467.031L102.151 464.312L106.369 464.5L108.015 460.445L109.082 464.64L113.488 464.851ZM59.3724 453.476C62.4773 462.554 69.3221 474.281 79.1385 481.547L87.0026 478.047C86.0852 477.765 85.1365 477.406 84.1486 476.969C79.5305 474.914 74.1519 471.125 69.1025 466.094C64.9 461.906 61.5599 457.492 59.3724 453.476ZM67.801 486.578C59.3959 479.219 54.4015 471.195 50.246 463.015L45.032 474.726C47.0392 478.883 52.5433 485.898 57.8043 491.015L67.801 486.578ZM47.3214 495.765C43.4011 492.398 41.6056 490.344 39.669 486.734C37.0189 492.679 35.5919 496.75 36.5406 498.234C37.3717 499.531 40.6021 498.875 47.3214 495.765ZM58.7765 443.539C58.7843 443.594 58.7843 443.656 58.7765 443.719C58.6981 444.883 58.9176 446.265 59.4194 447.812C59.6625 448.554 59.9683 449.344 60.3368 450.164C62.2812 454.508 65.9193 459.609 70.7726 464.453C75.6259 469.289 80.7536 472.914 85.113 474.851C86.046 475.265 86.9398 475.609 87.7788 475.859C88.9314 476.203 89.9898 476.398 90.9307 476.414C91.0013 476.414 91.0718 476.422 91.1424 476.429C92.3185 476.422 93.2672 476.117 93.9023 475.484C95.4155 473.976 95.0627 470.734 93.2594 466.719C91.3149 462.375 87.6769 457.273 82.8235 452.429C77.9702 447.594 72.8425 443.969 68.4831 442.031C64.4531 440.234 61.1992 439.883 59.686 441.39C59.1685 441.914 58.8706 442.64 58.7765 443.539Z" fill="black"/>
</g>
<defs>
<filter id="filter0_d_143_2" x="0.335938" y="100.641" width="63.3281" height="19.5156" filterUnits="userSpaceOnUse" color-interpolation-filters="sRGB">
<feFlood flood-opacity="0" result="BackgroundImageFix"/>
<feColorMatrix in="SourceAlpha" type="matrix" values="0 0 0 0 0 0 0 0 0 0 0 0 0 0 0 0 0 0 127 0" result="hardAlpha"/>
<feOffset dy="4"/>
<feGaussianBlur stdDeviation="2"/>
<feComposite in2="hardAlpha" operator="out"/>
<feColorMatrix type="matrix" values="0 0 0 0 0 0 0 0 0 0 0 0 0 0 0 0 0 0 0.25 0"/>
<feBlend mode="normal" in2="BackgroundImageFix" result="effect1_dropShadow_143_2"/>
<feBlend mode="normal" in="SourceGraphic" in2="effect1_dropShadow_143_2" result="shape"/>
</filter>
<filter id="filter1_d_143_2" x="326.852" y="209.641" width="56.1328" height="19.5156" filterUnits="userSpaceOnUse" color-interpolation-filters="sRGB">
<feFlood flood-opacity="0" result="BackgroundImageFix"/>
<feColorMatrix in="SourceAlpha" type="matrix" values="0 0 0 0 0 0 0 0 0 0 0 0 0 0 0 0 0 0 127 0" result="hardAlpha"/>
<feOffset dy="4"/>
<feGaussianBlur stdDeviation="2"/>
<feComposite in2="hardAlpha" operator="out"/>
<feColorMatrix type="matrix" values="0 0 0 0 0 0 0 0 0 0 0 0 0 0 0 0 0 0 0.25 0"/>
<feBlend mode="normal" in2="BackgroundImageFix" result="effect1_dropShadow_143_2"/>
<feBlend mode="normal" in="SourceGraphic" in2="effect1_dropShadow_143_2" result="shape"/>
</filter>
<filter id="filter2_d_143_2" x="4.09375" y="323.641" width="55.8125" height="19.5156" filterUnits="userSpaceOnUse" color-interpolation-filters="sRGB">
<feFlood flood-opacity="0" result="BackgroundImageFix"/>
<feColorMatrix in="SourceAlpha" type="matrix" values="0 0 0 0 0 0 0 0 0 0 0 0 0 0 0 0 0 0 127 0" result="hardAlpha"/>
<feOffset dy="4"/>
<feGaussianBlur stdDeviation="2"/>
<feComposite in2="hardAlpha" operator="out"/>
<feColorMatrix type="matrix" values="0 0 0 0 0 0 0 0 0 0 0 0 0 0 0 0 0 0 0.25 0"/>
<feBlend mode="normal" in2="BackgroundImageFix" result="effect1_dropShadow_143_2"/>
<feBlend mode="normal" in="SourceGraphic" in2="effect1_dropShadow_143_2" result="shape"/>
</filter>
<filter id="filter3_d_143_2" x="327.094" y="445.641" width="55.8125" height="19.5156" filterUnits="userSpaceOnUse" color-interpolation-filters="sRGB">
<feFlood flood-opacity="0" result="BackgroundImageFix"/>
<feColorMatrix in="SourceAlpha" type="matrix" values="0 0 0 0 0 0 0 0 0 0 0 0 0 0 0 0 0 0 127 0" result="hardAlpha"/>
<feOffset dy="4"/>
<feGaussianBlur stdDeviation="2"/>
<feComposite in2="hardAlpha" operator="out"/>
<feColorMatrix type="matrix" values="0 0 0 0 0 0 0 0 0 0 0 0 0 0 0 0 0 0 0.25 0"/>
<feBlend mode="normal" in2="BackgroundImageFix" result="effect1_dropShadow_143_2"/>
<feBlend mode="normal" in="SourceGraphic" in2="effect1_dropShadow_143_2" result="shape"/>
</filter>
<filter id="filter4_d_143_2" x="86.4297" y="77.1953" width="64.1797" height="25.0391" filterUnits="userSpaceOnUse" color-interpolation-filters="sRGB">
<feFlood flood-opacity="0" result="BackgroundImageFix"/>
<feColorMatrix in="SourceAlpha" type="matrix" values="0 0 0 0 0 0 0 0 0 0 0 0 0 0 0 0 0 0 127 0" result="hardAlpha"/>
<feOffset dy="4"/>
<feGaussianBlur stdDeviation="2"/>
<feComposite in2="hardAlpha" operator="out"/>
<feColorMatrix type="matrix" values="0 0 0 0 0 0 0 0 0 0 0 0 0 0 0 0 0 0 0.25 0"/>
<feBlend mode="normal" in2="BackgroundImageFix" result="effect1_dropShadow_143_2"/>
<feBlend mode="normal" in="SourceGraphic" in2="effect1_dropShadow_143_2" result="shape"/>
</filter>
<filter id="filter5_d_143_2" x="230.572" y="191.996" width="74.8555" height="22.1992" filterUnits="userSpaceOnUse" color-interpolation-filters="sRGB">
<feFlood flood-opacity="0" result="BackgroundImageFix"/>
<feColorMatrix in="SourceAlpha" type="matrix" values="0 0 0 0 0 0 0 0 0 0 0 0 0 0 0 0 0 0 127 0" result="hardAlpha"/>
<feOffset dy="4"/>
<feGaussianBlur stdDeviation="2"/>
<feComposite in2="hardAlpha" operator="out"/>
<feColorMatrix type="matrix" values="0 0 0 0 0 0 0 0 0 0 0 0 0 0 0 0 0 0 0.25 0"/>
<feBlend mode="normal" in2="BackgroundImageFix" result="effect1_dropShadow_143_2"/>
<feBlend mode="normal" in="SourceGraphic" in2="effect1_dropShadow_143_2" result="shape"/>
</filter>
<filter id="filter6_d_143_2" x="92.0078" y="303.996" width="61.3691" height="22.1992" filterUnits="userSpaceOnUse" color-interpolation-filters="sRGB">
<feFlood flood-opacity="0" result="BackgroundImageFix"/>
<feColorMatrix in="SourceAlpha" type="matrix" values="0 0 0 0 0 0 0 0 0 0 0 0 0 0 0 0 0 0 127 0" result="hardAlpha"/>
<feOffset dy="4"/>
<feGaussianBlur stdDeviation="2"/>
<feComposite in2="hardAlpha" operator="out"/>
<feColorMatrix type="matrix" values="0 0 0 0 0 0 0 0 0 0 0 0 0 0 0 0 0 0 0.25 0"/>
<feBlend mode="normal" in2="BackgroundImageFix" result="effect1_dropShadow_143_2"/>
<feBlend mode="normal" in="SourceGraphic" in2="effect1_dropShadow_143_2" result="shape"/>
</filter>
<filter id="filter7_d_143_2" x="230.191" y="427.996" width="76.0078" height="26.0078" filterUnits="userSpaceOnUse" color-interpolation-filters="sRGB">
<feFlood flood-opacity="0" result="BackgroundImageFix"/>
<feColorMatrix in="SourceAlpha" type="matrix" values="0 0 0 0 0 0 0 0 0 0 0 0 0 0 0 0 0 0 127 0" result="hardAlpha"/>
<feOffset dy="4"/>
<feGaussianBlur stdDeviation="2"/>
<feComposite in2="hardAlpha" operator="out"/>
<feColorMatrix type="matrix" values="0 0 0 0 0 0 0 0 0 0 0 0 0 0 0 0 0 0 0.25 0"/>
<feBlend mode="normal" in2="BackgroundImageFix" result="effect1_dropShadow_143_2"/>
<feBlend mode="normal" in="SourceGraphic" in2="effect1_dropShadow_143_2" result="shape"/>
</filter>
<clipPath id="clip0_143_2">
<rect width="82" height="82" fill="white" transform="translate(246 290)"/>
</clipPath>
<clipPath id="clip1_143_2">
<rect width="96" height="96" fill="white" transform="translate(34 405)"/>
</clipPath>
</defs>
</svg>
